<?xml version="1.0" encoding="windows-1252"?>
<!-- Generator: Adobe Illustrator 19.0.0, SVG Export Plug-In . SVG Version: 6.00 Build 0)  -->
<svg version="1.1" id="Capa_1" xmlns="http://www.w3.org/2000/svg" xmlns:xlink="http://www.w3.org/1999/xlink" x="0px" y="0px" viewBox="0 0 512 512" style="enable-background:new 0 0 512 512;" xml:space="preserve">
<g>
	<g>
		<path d="M504.5,456.925h-8.532v-24.563c0-4.143-3.357-7.5-7.5-7.5h-8.532V231.441h8.532c4.143,0,7.5-3.357,7.5-7.5v-17.788    c5.703-1.909,10.539-5.955,13.401-11.493c5.956-11.522,1.431-25.747-10.09-31.711L266.819,42.713    c-6.775-3.515-14.865-3.515-21.631-0.004L12.719,162.952C1.2,168.914-3.325,183.139,2.63,194.661    c2.828,5.471,7.582,9.527,13.402,11.484v17.796c0,4.143,3.357,7.5,7.5,7.5h8.533v193.42h-8.533c-4.143,0-7.5,3.357-7.5,7.5v24.563    H7.5c-4.143,0-7.5,3.357-7.5,7.5c0,4.143,3.357,7.5,7.5,7.5h497c4.143,0,7.5-3.357,7.5-7.5    C512,460.281,508.643,456.925,504.5,456.925z M20.955,191.991c-2.175-0.69-3.95-2.188-5-4.217    c-2.16-4.179-0.518-9.339,3.656-11.501L252.087,56.027c1.225-0.635,2.567-0.952,3.911-0.952c1.346,0,2.692,0.318,3.923,0.957    l232.465,120.24c4.178,2.163,5.819,7.322,3.659,11.5c-1.471,2.845-4.379,4.611-7.589,4.611c-1.372,0-2.685-0.32-3.909-0.955    L259.445,74.999c-2.16-1.117-4.73-1.117-6.891,0L27.44,191.435C25.427,192.481,23.124,192.679,20.955,191.991z M31.032,216.441    v-10.286c1.127-0.383,2.236-0.844,3.312-1.402l10.394-5.376h315.475c4.143,0,7.5-3.357,7.5-7.5c0-4.143-3.357-7.5-7.5-7.5H73.739    L256,90.105l182.261,94.272h-45.989c-4.143,0-7.5,3.357-7.5,7.5c0,4.143,3.357,7.5,7.5,7.5h74.991l10.386,5.372    c1.067,0.553,2.18,1.013,3.319,1.396v10.296H31.032z M464.936,231.441v193.42h-17.063v-193.42H464.936z M416.322,328.667    c-6.065,0-11.733,1.724-16.548,4.703v-69.864h0h33.097v69.865C428.057,330.392,422.388,328.667,416.322,328.667z M432.871,360.234    v64.626h-33.097v-64.664c0.011-9.116,7.429-16.53,16.548-16.53c9.125,0,16.548,7.424,16.548,16.549    C432.87,360.222,432.871,360.228,432.871,360.234z M399.774,248.506v-17.064h33.097v17.064H399.774z M384.774,360.235v64.625    H367.71v-193.42h17.064v128.736c0,0.013-0.001,0.026-0.001,0.039C384.773,360.223,384.774,360.229,384.774,360.235z     M336.161,328.667c-6.065,0-11.733,1.724-16.547,4.703v-69.864h33.096v69.864C347.896,330.391,342.227,328.667,336.161,328.667z     M352.71,360.215v64.646h-33.096v-64.665c0.011-9.116,7.428-16.53,16.547-16.53C345.286,343.666,352.71,351.09,352.71,360.215z     M319.614,248.506v-17.064h33.096v17.064H319.614z M304.613,256.024v104.152c0,0.013-0.001,0.026-0.001,0.039    c0,0.007,0.001,0.013,0.001,0.019v64.626h-17.064V231.441h17.064v24.545c0,0.007-0.001,0.013-0.001,0.019    S304.613,256.018,304.613,256.024z M256,328.667c-6.065,0-11.733,1.724-16.548,4.703v-69.864h33.097v69.865    C267.735,330.392,262.066,328.667,256,328.667z M272.549,360.234v64.626h-33.097v-64.645c0-9.125,7.423-16.549,16.548-16.549    s16.548,7.424,16.548,16.549C272.548,360.222,272.549,360.228,272.549,360.234z M239.452,248.506v-17.064h33.097v17.064H239.452z     M224.452,231.441v193.42h-17.064v-193.42H224.452z M175.839,328.667c-6.065,0-11.734,1.724-16.548,4.703v-69.864h33.096v69.864    C187.573,330.391,181.904,328.667,175.839,328.667z M192.388,360.215v64.646h-33.096v-64.665    c0.011-9.116,7.429-16.53,16.548-16.53C184.964,343.666,192.388,351.09,192.388,360.215z M159.291,248.506v-17.064h33.096v17.064    H159.291z M144.291,360.235v64.625h-17.064v-193.42h17.064v128.736c0,0.013-0.001,0.026-0.001,0.039    C144.29,360.223,144.291,360.229,144.291,360.235z M79.13,248.505v-17.064h33.097v17.064H79.13z M112.227,263.506v69.864    c-4.814-2.979-10.483-4.703-16.549-4.703c-6.065,0-11.734,1.724-16.548,4.703v-69.864H112.227z M64.128,231.441v193.42H47.065    v-193.42H64.128z M480.968,456.923H31.032v-17.062h56.628c4.143,0,7.5-3.357,7.5-7.5c0-4.143-3.357-7.5-7.5-7.5H79.13v-64.646    c0-9.125,7.423-16.549,16.548-16.549c9.125,0,16.549,7.424,16.549,16.549v72.126c0,0.007-0.001,0.013-0.001,0.019    c0,4.143,3.357,7.5,7.5,7.5h361.242V456.923z"/>
	</g>
</g>
<g>
	<g>
		<path d="M288.065,152.313h-64.13c-4.143,0-7.5,3.357-7.5,7.5c0,4.143,3.357,7.5,7.5,7.5h64.13c4.143,0,7.5-3.357,7.5-7.5    C295.565,155.67,292.207,152.313,288.065,152.313z"/>
	</g>
</g>
<g>
	<g>
		<path d="M264.015,120.248h-16.031c-4.143,0-7.5,3.357-7.5,7.5c0,4.143,3.358,7.5,7.5,7.5h16.031c4.143,0,7.5-3.357,7.5-7.5    C271.515,123.605,268.158,120.248,264.015,120.248z"/>
	</g>
</g>
<g>
</g>
<g>
</g>
<g>
</g>
<g>
</g>
<g>
</g>
<g>
</g>
<g>
</g>
<g>
</g>
<g>
</g>
<g>
</g>
<g>
</g>
<g>
</g>
<g>
</g>
<g>
</g>
<g>
</g>
</svg>