<?xml version="1.0" encoding="iso-8859-1"?>
<!-- Generator: Adobe Illustrator 19.0.0, SVG Export Plug-In . SVG Version: 6.00 Build 0)  -->
<svg version="1.1" id="Layer_1" xmlns="http://www.w3.org/2000/svg" xmlns:xlink="http://www.w3.org/1999/xlink" x="0px" y="0px"
	 viewBox="0 0 512 512" style="enable-background:new 0 0 512 512;" xml:space="preserve">
<g>
	<g>
		<path fill="#FFFFFF" d="M12.436,48.458c-3.591-2.497-8.524-1.609-11.019,1.981c-2.496,3.589-1.609,8.522,1.981,11.019
			c2.919,2.029,5.86,4.019,8.815,5.979c-1.795,16.837-2.893,33.91-3.262,51.173c-0.024,1.105,0.65,2.308,2.063,2.947
			c16.801-60.713,14.572-52.731,15.142-54.543c0.817-2.592,1.947-5.024,3.346-7.262C23.741,56.118,18.047,52.358,12.436,48.458z"/>
	</g>
</g>
<g>
	<g>
		<path fill="#FFFFFF" d="M338.671,160.455c-7.803-5.983-11.698-15.165-11.268-24.295c0.13-2.757,0.656-5.507,1.587-8.164
			c0,0-29.433,3.487-86.512,0.129c-28.926-1.702-86.512-13.095-86.512-13.095c0.694,5.353,0.528,10.8-0.677,16.374
			c0.1,0.026,0.199,0.053,0.299,0.08c2.733,12.403,5.891,24.807,9.472,37.192l14.699,6.751c9.038-10.931,18.08-22.667,26.607-34.675
			c0.937,2.788,2.482,7.25,3.961,11.37c12.247-11.534,31.786-10.63,42.901,2.312c2.084-3.587,4.182-7.29,5.078-8.893
			c7.281,15.671,15.415,31.312,24.134,46.406c0.539,0.932,1.659,1.517,2.878,1.494c1.219-0.021,2.319-0.644,2.824-1.596
			c7.893-14.853,15.57-30.814,22.543-47.24c9.042,14.83,18.858,29.414,29.251,43.455c0.642,0.869,1.828,1.322,3.046,1.165
			c1.218-0.156,2.251-0.898,2.653-1.899c2.219-5.534,4.338-11.082,6.381-16.639L338.671,160.455z"/>
	</g>
</g>
<g>
	<g>
		<circle fill="#FFFFFF" cx="433.484" cy="105.976" r="31.986"/>
	</g>
</g>
<g>
	<g>
		<path fill="#FFFFFF" d="M511.332,441.092l-23.903-87.184l9.804-63.926l-7.393-119.899c-1.059-12.884-12.362-22.471-25.247-21.412
			c-8.383,0.689,5.056-1.376-56.221,9.256l-42.682-32.721c-7.013-5.377-17.141-3.854-22.238,3.487
			c-4.773,6.875-2.97,16.361,3.672,21.453l47.737,36.596c3.452,2.646,7.843,3.719,12.115,2.98l42.244-7.33l-45.411,22.126
			l7.491,91.139l-18.676,50.92c-1.207,3.292-1.462,6.858-0.736,10.289l19.7,93.023c2.133,10.071,12.026,16.519,22.113,14.383
			c10.078-2.135,16.518-12.034,14.383-22.113l-18.588-87.772l22.251-60.668l7.257-0.596l-9.058,59.057
			c-0.397,2.59-0.244,5.233,0.448,7.76l24.954,91.017c2.723,9.933,12.984,15.781,22.921,13.057
			C508.211,461.289,514.056,451.027,511.332,441.092z"/>
	</g>
</g>
<g>
	<g>
		<path fill="#FFFFFF" d="M108.314,90.938c-17.22,0-31.188,13.882-31.371,31.039c-0.001,0.114-0.009,0.226-0.009,0.341
			c0.001,17.462,14.216,31.38,31.38,31.38c17.413,0,31.668-14.234,31.366-31.92C139.392,104.698,125.465,90.938,108.314,90.938z"/>
	</g>
</g>
<g>
	<g>
		<path fill="#FFFFFF" d="M241.147,162.832c-6.035-5.786-15.618-5.58-21.404,0.458l-30.955,32.31l-48.282-22.174
			c-1.644-0.755-5.155-1.821-7.958-1.821c-13.409,0-23.82,0-38.152,0h-0.001c-14.676-16.777-24.439-27.937-36.843-42.117
			L71.08,80.603c2.23-8.058-2.493-16.399-10.554-18.63c-8.153-2.256-16.427,2.622-18.63,10.554l-15.705,56.751
			c-1.334,4.816-0.208,10.115,3.196,14.007l38.454,43.96v114.32h0.007v145.227c0,9.965,8.084,18.169,18.169,18.169
			c10.034,0,18.169-8.135,18.169-18.169V301.561h7.843v145.227c0,9.998,8.116,18.169,18.169,18.169
			c10.034,0,18.169-8.135,18.169-18.169c0-187.165-0.329-233.202-0.329-236.579l37.904,17.407
			c5.871,2.695,12.794,1.368,17.252-3.285l38.412-40.093C247.392,178.201,247.185,168.616,241.147,162.832z"/>
	</g>
</g>
<g>
</g>
<g>
</g>
<g>
</g>
<g>
</g>
<g>
</g>
<g>
</g>
<g>
</g>
<g>
</g>
<g>
</g>
<g>
</g>
<g>
</g>
<g>
</g>
<g>
</g>
<g>
</g>
<g>
</g>
</svg>
