<?xml version="1.0" encoding="utf-8"?>
<!-- Generator: Adobe Illustrator 16.0.0, SVG Export Plug-In . SVG Version: 6.00 Build 0)  -->
<!DOCTYPE svg PUBLIC "-//W3C//DTD SVG 1.1//EN" "http://www.w3.org/Graphics/SVG/1.1/DTD/svg11.dtd">
<svg version="1.1" id="Layer_1" xmlns="http://www.w3.org/2000/svg" xmlns:xlink="http://www.w3.org/1999/xlink" x="0px" y="0px"
	  viewBox="0 0 512 512" enable-background="new 0 0 512 512" xml:space="preserve">
<g>
	<g>
		<path fill="#FFFFFF" d="M460.75,373.25c12.156-25.031,19.781-52.625,21.844-81.781h-64.813c-1.75,17.406-6.75,33.781-13.625,49.125L460.75,373.25
			z"/>
		<path fill="#FFFFFF" d="M388.438,368.438c-9.969,13.969-22.219,26-36.031,36.094l32.438,56.25c23.531-16,43.781-36.375,59.75-59.938
			L388.438,368.438z"/>
		<path fill="#FFFFFF" d="M324.844,420.781c-15.344,7-31.938,11.375-49.438,13.156v64.75c29.188-2.063,56.781-9.688,81.781-21.875L324.844,420.781z
			"/>
		<path fill="#FFFFFF" d="M243.406,433.844c-80.625-8.156-144-75.625-144-158.375c0-53.375,26.5-100.375,66.781-129.5l-32.344-56
			c-59.375,40.281-98.438,108.313-98.438,185.5c0,118.313,91.813,214.969,208,223.188V433.844z"/>
	</g>
	<path fill="#FFFFFF" d="M418.406,259.469h64c-2.094-29.156-9.625-56.688-21.813-81.688l-55.688,32.156
		C411.938,225.313,416.656,241.906,418.406,259.469z"/>
	<path fill="#FFFFFF" d="M388.813,182.281l55.906-32.25c-16-23.563-36.156-44.063-59.719-60.063L352.656,146
		C366.594,156.063,378.719,168.406,388.813,182.281z"/>
	<rect fill="#FFFFFF" x="227.406" y="19.469" width="64" height="192"/>
</g>
</svg>
