<svg id="Layer_1" data-name="Layer 1" xmlns="http://www.w3.org/2000/svg" viewBox="0 0 505.96 489.57"><defs><style>.cls-1{fill:none;}.cls-2{fill:#1e7f9c;}</style></defs><title>2-predict</title><path fill="#FFFFFF" class="cls-1" d="M312,73.17a161.66,161.66,0,0,0-228.46,0c-63,63-63,165.55,0,228.56a161.66,161.66,0,0,0,228.46,0C375.05,238.72,375.05,136.18,312,73.17ZM197.8,319.7A131.32,131.32,0,0,1,104.33,281c-51.54-51.54-51.54-135.4,0-186.94A132.19,132.19,0,1,1,197.8,319.7Z" transform="translate(-2.5 -10.7)"/><path fill="#FFFFFF" class="cls-1" d="M310,193.6l-25.79,25.22a28.37,28.37,0,0,1,2.55,11.88A28.8,28.8,0,0,1,229.23,232l-55.76-17.51a28.8,28.8,0,0,1-34.52,8.8l-30.88,32A112.42,112.42,0,0,0,277.33,267,111.56,111.56,0,0,0,310,193.6Zm-91,93.84a101.72,101.72,0,0,1-59.36-5.12l-2.32-.94,7.36-18.33L167,264A82.6,82.6,0,0,0,215,268.15l2.46-.51,4,19.28Z" transform="translate(-2.5 -10.7)"/><path fill="#FFFFFF" class="cls-1" d="M382.8,330.53,338.34,375,443.09,479.37l44.37-44.47Zm0,42.41-10.6,10.7-14-14L382.8,345l54.85,54.74-14.06,13.91Zm49.95,49.83,14-14,14.49,14.5-14,14Z" transform="translate(-2.5 -10.7)"/><path fill="#FFFFFF" class="cls-1" d="M150.56,187.9a9.1,9.1,0,1,0,9.14,9.1A9.1,9.1,0,0,0,150.56,187.9Z" transform="translate(-2.5 -10.7)"/><path fill="#FFFFFF" class="cls-1" d="M313.94,326.84,335.47,350l22.65-22.66L336.6,304.27c-3.54,4.18-7.07,8-10.53,11.5C322.28,319.56,318.21,323.28,313.94,326.84Z" transform="translate(-2.5 -10.7)"/><ellipse class="cls-1" cx="399.3" cy="78.8" rx="9" ry="9.1"/><path fill="#FFFFFF" class="cls-1" d="M35.3,325.94a8.88,8.88,0,1,0-2.51,6.27A8.65,8.65,0,0,0,35.3,325.94Z" transform="translate(-2.5 -10.7)"/><path fill="#FFFFFF" class="cls-1" d="M150.7,168.2a28.84,28.84,0,0,1,28.77,27.46l55.76,17.51a28.84,28.84,0,0,1,35.33-8.44l38.05-37.2A112.47,112.47,0,0,0,118.37,108,112.9,112.9,0,0,0,97.5,238l27.34-28.39A28.44,28.44,0,0,1,121.9,197,28.83,28.83,0,0,1,150.7,168.2Zm98.17-69.33,2.13,1.29a105.09,105.09,0,0,1,13.42,9.74l1.91,1.62-12.86,15-1.9-1.63A84.5,84.5,0,0,0,240.69,117l-2.12-1.31ZM130.76,110.31A102.51,102.51,0,0,1,231.62,91l2.37.83-6.56,18.61-2.35-.82a82.85,82.85,0,0,0-81.34,15.53l-1.88,1.63-13-14.86Z" transform="translate(-2.5 -10.7)"/><path fill="#FFFFFF" class="cls-1" d="M267.1,230.7a9.05,9.05,0,1,0-9,9.1A9.06,9.06,0,0,0,267.1,230.7Z" transform="translate(-2.5 -10.7)"/><path fill="#FFFFFF" class="cls-2" d="M325,187.5a127.25,127.25,0,1,0-37.27,89.93A126.36,126.36,0,0,0,325,187.5ZM94.7,243.4a118.07,118.07,0,0,1-13.11-72.05A117.42,117.42,0,0,1,281,104.43,116.48,116.48,0,0,1,313.77,168l.21,1.29-42.59,41.63-1.64-.95a23.29,23.29,0,0,0-11.65-3.06,23.84,23.84,0,0,0-19.82,10.59l-1.05,1.56L174.5,199.33V197a23.8,23.8,0,0,0-47.6,0,23.5,23.5,0,0,0,3.16,11.75l.95,1.63-34.67,36Zm177.4-12.7a14.05,14.05,0,1,1-14-14.1A14.07,14.07,0,0,1,272.1,230.7ZM164.7,197a14.1,14.1,0,1,1-14.1-14.1A14.27,14.27,0,0,1,164.7,197Zm33.1,108a116.75,116.75,0,0,1-83.07-34.43,119.48,119.48,0,0,1-12-14l-1.24-1.69,36.35-37.65,1.65.85a24.1,24.1,0,0,0,11.06,2.72,23.84,23.84,0,0,0,19.82-10.59l1.05-1.56,62.73,19.72v2.33a23.8,23.8,0,0,0,47.6,0,23.27,23.27,0,0,0-2.8-11.21l-.9-1.66,37.1-36.27v5.94A117.38,117.38,0,0,1,197.8,305Z" transform="translate(-2.5 -10.7)"/><path fill="#FFFFFF" class="cls-2" d="M224.36,104.16,227.6,95A97.54,97.54,0,0,0,136,112.47l6.42,7.33A87.88,87.88,0,0,1,224.36,104.16Z" transform="translate(-2.5 -10.7)"/><path fill="#FFFFFF" class="cls-2" d="M252.9,119.5l6.35-7.4a100.4,100.4,0,0,0-8.73-6.34l-5.1,8.34C248.08,115.83,250.58,117.64,252.9,119.5Z" transform="translate(-2.5 -10.7)"/><path fill="#FFFFFF" class="cls-2" d="M167.5,269.52l-3.64,9.07a96.94,96.94,0,0,0,51.68,4.46l-2-9.52A87.58,87.58,0,0,1,167.5,269.52Z" transform="translate(-2.5 -10.7)"/><path fill="#FFFFFF" class="cls-2" d="M382.8,309.73,372,320.5,342.3,288.74l1.14-1.65c30.37-44.36,38.74-101.56,22.38-153l-.47-1.47,23.52-23,1.62.87a23.89,23.89,0,0,0,35.11-21A22.5,22.5,0,0,0,423,78.79l-.9-1.66L473,27.36V53.7h9.8v-43H440v9.8h25.93L415.48,69.83l-1.65-1A23.83,23.83,0,0,0,381,101l.92,1.66-20.09,19.71L360.4,119a174.94,174.94,0,0,0-37.77-56.2C253.9-6,142-6,73.17,62.77a176,176,0,0,0-20.12,225.5L54.22,290,39.11,305.67l-1.65-.85a23.89,23.89,0,0,0-35,21.08,23.8,23.8,0,0,0,47.6,0,23.5,23.5,0,0,0-3.16-11.75L46,312.52l14.17-14.69L61.94,300a158.71,158.71,0,0,0,11.13,12.21,176.73,176.73,0,0,0,223.83,21.2l1.76-1.2,29.82,31.83-11,11L443.1,500.27l65.36-65.37Zm19-234.33a14.1,14.1,0,1,1-14,14.1A14.07,14.07,0,0,1,401.8,75.4ZM36.36,335.72a14.06,14.06,0,1,1,3.94-9.82A13.64,13.64,0,0,1,36.36,335.72ZM197.84,354A165.51,165.51,0,0,1,80,305.27c-65-65-65-170.67,0-235.64a166.68,166.68,0,0,1,235.54,0c65,65,65,170.67,0,235.64A165.25,165.25,0,0,1,197.84,354Zm108.81-27.66,2.07-1.68a178.46,178.46,0,0,0,13.81-12.43c3.94-3.94,8-8.42,12-13.32l1.82-2.2,28.69,30.75L335.33,357.2ZM331.26,375l51.54-51.53L494.54,434.9,443.1,486.43Z" transform="translate(-2.5 -10.7)"/><polygon class="cls-2" points="421.11 395.88 428.05 388.99 380.3 341.33 362.74 358.9 369.69 365.86 380.29 355.16 421.11 395.88"/><rect class="cls-2" x="442.1" y="417.77" width="9.8" height="10.5" transform="translate(-170.69 429.32) rotate(-45)"/><rect class="cls-2" x="80" y="365.7" width="9.8" height="11.1"/><rect class="cls-2" x="80" y="455.9" width="9.8" height="11.1"/><rect class="cls-2" x="201.7" y="396.7" width="9.8" height="11.1"/><rect class="cls-2" x="413.4" y="263.9" width="9.8" height="11.1"/><rect class="cls-2" x="430.1" y="135.7" width="9.8" height="11.1"/><rect class="cls-2" x="479.1" y="203.6" width="9.8" height="11.1"/></svg>
